<mxfile host="app.diagrams.net" agent="Mozilla/5.0 (Windows NT 10.0; Win64; x64) AppleWebKit/537.36 (KHTML, like Gecko) Chrome/129.0.0.0 Safari/537.36" version="24.7.14">
  <diagram name="PÃ¡gina-1" id="nfaHS-6LXGWvkFeAx84n">
    <mxGraphModel>
      <root>
        <mxCell id="0" />
        <mxCell id="1" parent="0" />
        <mxCell id="2" value="Plant" style="ellipse;aspect=fixed;strokeWidth=2;whiteSpace=wrap;" vertex="1" parent="1">
          <mxGeometry x="355" y="290" width="58" height="58" as="geometry" />
        </mxCell>
        <mxCell id="3" value="Photosynthesis" style="rounded=1;absoluteArcSize=1;arcSize=14;whiteSpace=wrap;strokeWidth=2;" vertex="1" parent="1">
          <mxGeometry x="481" y="284" width="125" height="38" as="geometry" />
        </mxCell>
        <mxCell id="4" value="Light" style="rounded=1;absoluteArcSize=1;arcSize=14;whiteSpace=wrap;strokeWidth=2;" vertex="1" parent="1">
          <mxGeometry x="666" y="292" width="56" height="38" as="geometry" />
        </mxCell>
        <mxCell id="5" value="CO2" style="rounded=1;absoluteArcSize=1;arcSize=14;whiteSpace=wrap;strokeWidth=2;" vertex="1" parent="1">
          <mxGeometry x="615" y="215" width="49" height="38" as="geometry" />
        </mxCell>
        <mxCell id="6" value="Water" style="rounded=1;absoluteArcSize=1;arcSize=14;whiteSpace=wrap;strokeWidth=2;" vertex="1" parent="1">
          <mxGeometry x="593" y="362" width="64" height="38" as="geometry" />
        </mxCell>
        <mxCell id="7" value="Parts" style="rounded=1;absoluteArcSize=1;arcSize=14;whiteSpace=wrap;strokeWidth=2;" vertex="1" parent="1">
          <mxGeometry x="268" y="393" width="56" height="38" as="geometry" />
        </mxCell>
        <mxCell id="8" value="Root" style="rounded=1;absoluteArcSize=1;arcSize=14;whiteSpace=wrap;strokeWidth=2;" vertex="1" parent="1">
          <mxGeometry x="375" y="418" width="53" height="38" as="geometry" />
        </mxCell>
        <mxCell id="9" value="Taproot" style="rounded=1;absoluteArcSize=1;arcSize=14;whiteSpace=wrap;strokeWidth=2;" vertex="1" parent="1">
          <mxGeometry x="482" y="447" width="76" height="38" as="geometry" />
        </mxCell>
        <mxCell id="10" value="Fibrous roots" style="rounded=1;absoluteArcSize=1;arcSize=14;whiteSpace=wrap;strokeWidth=2;" vertex="1" parent="1">
          <mxGeometry x="437" y="353" width="113" height="38" as="geometry" />
        </mxCell>
        <mxCell id="11" value="Stem" style="rounded=1;absoluteArcSize=1;arcSize=14;whiteSpace=wrap;strokeWidth=2;" vertex="1" parent="1">
          <mxGeometry x="165" y="322" width="56" height="38" as="geometry" />
        </mxCell>
        <mxCell id="12" value="Trunk" style="rounded=1;absoluteArcSize=1;arcSize=14;whiteSpace=wrap;strokeWidth=2;" vertex="1" parent="1">
          <mxGeometry x="252" y="257" width="61" height="38" as="geometry" />
        </mxCell>
        <mxCell id="13" value="Branches" style="rounded=1;absoluteArcSize=1;arcSize=14;whiteSpace=wrap;strokeWidth=2;" vertex="1" parent="1">
          <mxGeometry x="58" y="250" width="85" height="38" as="geometry" />
        </mxCell>
        <mxCell id="14" value="Leaf" style="rounded=1;absoluteArcSize=1;arcSize=14;whiteSpace=wrap;strokeWidth=2;" vertex="1" parent="1">
          <mxGeometry x="321" y="487" width="52" height="38" as="geometry" />
        </mxCell>
        <mxCell id="15" value="Blade" style="rounded=1;absoluteArcSize=1;arcSize=14;whiteSpace=wrap;strokeWidth=2;" vertex="1" parent="1">
          <mxGeometry x="337" y="582" width="60" height="38" as="geometry" />
        </mxCell>
        <mxCell id="16" value="Veins" style="rounded=1;absoluteArcSize=1;arcSize=14;whiteSpace=wrap;strokeWidth=2;" vertex="1" parent="1">
          <mxGeometry x="427" y="522" width="58" height="38" as="geometry" />
        </mxCell>
        <mxCell id="17" value="Flower" style="rounded=1;absoluteArcSize=1;arcSize=14;whiteSpace=wrap;strokeWidth=2;" vertex="1" parent="1">
          <mxGeometry x="193" y="481" width="69" height="38" as="geometry" />
        </mxCell>
        <mxCell id="18" value="Petal" style="rounded=1;absoluteArcSize=1;arcSize=14;whiteSpace=wrap;strokeWidth=2;" vertex="1" parent="1">
          <mxGeometry x="150" y="571" width="57" height="38" as="geometry" />
        </mxCell>
        <mxCell id="19" value="Pistil" style="rounded=1;absoluteArcSize=1;arcSize=14;whiteSpace=wrap;strokeWidth=2;" vertex="1" parent="1">
          <mxGeometry x="242" y="567" width="55" height="38" as="geometry" />
        </mxCell>
        <mxCell id="20" value="Stamen" style="rounded=1;absoluteArcSize=1;arcSize=14;whiteSpace=wrap;strokeWidth=2;" vertex="1" parent="1">
          <mxGeometry x="64" y="508" width="73" height="38" as="geometry" />
        </mxCell>
        <mxCell id="21" value="Fruit" style="rounded=1;absoluteArcSize=1;arcSize=14;whiteSpace=wrap;strokeWidth=2;" vertex="1" parent="1">
          <mxGeometry x="151" y="401" width="55" height="38" as="geometry" />
        </mxCell>
        <mxCell id="22" value="Seed" style="rounded=1;absoluteArcSize=1;arcSize=14;whiteSpace=wrap;strokeWidth=2;" vertex="1" parent="1">
          <mxGeometry x="47" y="344" width="54" height="38" as="geometry" />
        </mxCell>
        <mxCell id="23" value="Pericarp" style="rounded=1;absoluteArcSize=1;arcSize=14;whiteSpace=wrap;strokeWidth=2;" vertex="1" parent="1">
          <mxGeometry x="15" y="428" width="79" height="38" as="geometry" />
        </mxCell>
        <mxCell id="24" value="Reproduction" style="rounded=1;absoluteArcSize=1;arcSize=14;whiteSpace=wrap;strokeWidth=2;" vertex="1" parent="1">
          <mxGeometry x="316" y="196" width="115" height="38" as="geometry" />
        </mxCell>
        <mxCell id="25" value="Sexual" style="rounded=1;absoluteArcSize=1;arcSize=14;whiteSpace=wrap;strokeWidth=2;" vertex="1" parent="1">
          <mxGeometry x="258" y="117" width="67" height="38" as="geometry" />
        </mxCell>
        <mxCell id="26" value="Pollination" style="rounded=1;absoluteArcSize=1;arcSize=14;whiteSpace=wrap;strokeWidth=2;" vertex="1" parent="1">
          <mxGeometry x="194" y="31" width="96" height="38" as="geometry" />
        </mxCell>
        <mxCell id="27" value="Fertilization" style="rounded=1;absoluteArcSize=1;arcSize=14;whiteSpace=wrap;strokeWidth=2;" vertex="1" parent="1">
          <mxGeometry x="93" y="105" width="108" height="38" as="geometry" />
        </mxCell>
        <mxCell id="28" value="Asexual" style="rounded=1;absoluteArcSize=1;arcSize=14;whiteSpace=wrap;strokeWidth=2;" vertex="1" parent="1">
          <mxGeometry x="382" y="106" width="76" height="38" as="geometry" />
        </mxCell>
        <mxCell id="29" value="Vegetative propagation" style="rounded=1;absoluteArcSize=1;arcSize=14;whiteSpace=wrap;strokeWidth=2;" vertex="1" parent="1">
          <mxGeometry x="472" y="56" width="188" height="38" as="geometry" />
        </mxCell>
        <mxCell id="30" value="Budding" style="rounded=1;absoluteArcSize=1;arcSize=14;whiteSpace=wrap;strokeWidth=2;" vertex="1" parent="1">
          <mxGeometry x="358" y="15" width="77" height="38" as="geometry" />
        </mxCell>
        <mxCell id="31" value="Germination" style="rounded=1;absoluteArcSize=1;arcSize=14;whiteSpace=wrap;strokeWidth=2;" vertex="1" parent="1">
          <mxGeometry x="483" y="162" width="109" height="38" as="geometry" />
        </mxCell>
        <mxCell id="32" value="Growth" style="rounded=1;absoluteArcSize=1;arcSize=14;whiteSpace=wrap;strokeWidth=2;" vertex="1" parent="1">
          <mxGeometry x="188" y="186" width="73" height="38" as="geometry" />
        </mxCell>
        <mxCell id="33" style="endArrow=none" edge="1" parent="1" source="2" target="3">
          <mxGeometry relative="1" as="geometry" />
        </mxCell>
        <mxCell id="34" style="endArrow=none" edge="1" parent="1" source="2" target="7">
          <mxGeometry relative="1" as="geometry" />
        </mxCell>
        <mxCell id="35" style="endArrow=none" edge="1" parent="1" source="2" target="24">
          <mxGeometry relative="1" as="geometry" />
        </mxCell>
        <mxCell id="36" style="endArrow=none" edge="1" parent="1" source="3" target="4">
          <mxGeometry relative="1" as="geometry" />
        </mxCell>
        <mxCell id="37" style="endArrow=none" edge="1" parent="1" source="3" target="5">
          <mxGeometry relative="1" as="geometry" />
        </mxCell>
        <mxCell id="38" style="endArrow=none" edge="1" parent="1" source="3" target="6">
          <mxGeometry relative="1" as="geometry" />
        </mxCell>
        <mxCell id="39" style="endArrow=none" edge="1" parent="1" source="7" target="8">
          <mxGeometry relative="1" as="geometry" />
        </mxCell>
        <mxCell id="40" style="endArrow=none" edge="1" parent="1" source="7" target="11">
          <mxGeometry relative="1" as="geometry" />
        </mxCell>
        <mxCell id="41" style="endArrow=none" edge="1" parent="1" source="7" target="14">
          <mxGeometry relative="1" as="geometry" />
        </mxCell>
        <mxCell id="42" style="endArrow=none" edge="1" parent="1" source="7" target="17">
          <mxGeometry relative="1" as="geometry" />
        </mxCell>
        <mxCell id="43" style="endArrow=none" edge="1" parent="1" source="7" target="21">
          <mxGeometry relative="1" as="geometry" />
        </mxCell>
        <mxCell id="44" style="endArrow=none" edge="1" parent="1" source="8" target="9">
          <mxGeometry relative="1" as="geometry" />
        </mxCell>
        <mxCell id="45" style="endArrow=none" edge="1" parent="1" source="8" target="10">
          <mxGeometry relative="1" as="geometry" />
        </mxCell>
        <mxCell id="46" style="endArrow=none" edge="1" parent="1" source="11" target="12">
          <mxGeometry relative="1" as="geometry" />
        </mxCell>
        <mxCell id="47" style="endArrow=none" edge="1" parent="1" source="11" target="13">
          <mxGeometry relative="1" as="geometry" />
        </mxCell>
        <mxCell id="48" style="endArrow=none" edge="1" parent="1" source="14" target="15">
          <mxGeometry relative="1" as="geometry" />
        </mxCell>
        <mxCell id="49" style="endArrow=none" edge="1" parent="1" source="14" target="16">
          <mxGeometry relative="1" as="geometry" />
        </mxCell>
        <mxCell id="50" style="endArrow=none" edge="1" parent="1" source="17" target="18">
          <mxGeometry relative="1" as="geometry" />
        </mxCell>
        <mxCell id="51" style="endArrow=none" edge="1" parent="1" source="17" target="19">
          <mxGeometry relative="1" as="geometry" />
        </mxCell>
        <mxCell id="52" style="endArrow=none" edge="1" parent="1" source="17" target="20">
          <mxGeometry relative="1" as="geometry" />
        </mxCell>
        <mxCell id="53" style="endArrow=none" edge="1" parent="1" source="21" target="22">
          <mxGeometry relative="1" as="geometry" />
        </mxCell>
        <mxCell id="54" style="endArrow=none" edge="1" parent="1" source="21" target="23">
          <mxGeometry relative="1" as="geometry" />
        </mxCell>
        <mxCell id="55" style="endArrow=none" edge="1" parent="1" source="24" target="25">
          <mxGeometry relative="1" as="geometry" />
        </mxCell>
        <mxCell id="56" style="endArrow=none" edge="1" parent="1" source="24" target="28">
          <mxGeometry relative="1" as="geometry" />
        </mxCell>
        <mxCell id="57" style="endArrow=none" edge="1" parent="1" source="24" target="31">
          <mxGeometry relative="1" as="geometry" />
        </mxCell>
        <mxCell id="58" style="endArrow=none" edge="1" parent="1" source="24" target="32">
          <mxGeometry relative="1" as="geometry" />
        </mxCell>
        <mxCell id="59" style="endArrow=none" edge="1" parent="1" source="25" target="26">
          <mxGeometry relative="1" as="geometry" />
        </mxCell>
        <mxCell id="60" style="endArrow=none" edge="1" parent="1" source="25" target="27">
          <mxGeometry relative="1" as="geometry" />
        </mxCell>
        <mxCell id="61" style="endArrow=none" edge="1" parent="1" source="28" target="29">
          <mxGeometry relative="1" as="geometry" />
        </mxCell>
        <mxCell id="62" style="endArrow=none" edge="1" parent="1" source="28" target="30">
          <mxGeometry relative="1" as="geometry" />
        </mxCell>
      </root>
    </mxGraphModel>
  </diagram>
</mxfile>
